<?xml version="1.0" encoding="UTF-8"?>
<svg width="389px" height="572px" viewBox="0 0 389 572" version="1.1" xmlns="http://www.w3.org/2000/svg" xmlns:xlink="http://www.w3.org/1999/xlink">
    <title>logo/ESL-Pro-Tour</title>
    <g id="logo/ESL-Pro-Tour" stroke="none" stroke-width="1" fill="none" fill-rule="evenodd">
        <g id="EPT" transform="translate(4.000000, 0.999800)">
            <polygon id="frame" fill="#FEFEFE" points="139.05 570.3522 383.307 570.3522 383.307 141.9902 139.05 141.9902"></polygon>
            <path d="M-143.07518,410.934496 L-143.07518,367.853136 L-134.458908,367.853136 C-127.227394,367.853136 -121.072914,365.699068 -116.610916,361.544794 C-113.07209,358.313692 -108.917816,352.159212 -108.917816,341.388872 L-108.917816,341.388872 L-108.917816,329.69536 C-108.917816,319.078882 -113.07209,312.924402 -116.610916,309.6933 C-121.072914,305.539026 -127.227394,303.231096 -134.458908,303.231096 L-134.458908,303.231096 L-160,303.231096 L-160,410.934496 L-143.07518,410.934496 Z M-134.458908,350.928316 L-143.07518,350.928316 L-143.07518,320.155916 L-134.458908,320.155916 C-132.458702,320.155916 -129.843048,320.46364 -128.150566,322.00226 C-126.304222,323.848604 -125.842636,327.233568 -125.842636,329.69536 L-125.842636,329.69536 L-125.842636,341.388872 C-125.842636,344.004526 -126.304222,347.38949 -128.150566,349.081972 C-129.843048,350.620592 -132.458702,350.928316 -134.458908,350.928316 L-134.458908,350.928316 Z M-83.261276,410.934496 L-83.261276,367.699274 L-75.568176,367.699274 L-66.798042,410.934496 L-49.565498,410.934496 L-59.258804,363.391138 C-58.335632,362.77569 -57.566322,362.160242 -56.797012,361.390932 C-53.258186,358.15983 -49.103912,352.00535 -49.103912,341.23501 L-49.103912,329.69536 C-49.103912,319.078882 -53.258186,312.924402 -56.797012,309.6933 C-61.25901,305.539026 -67.41349,303.231096 -74.645004,303.231096 L-100.186096,303.231096 L-100.186096,410.934496 L-83.261276,410.934496 Z M-74.645004,350.774454 L-83.261276,350.774454 L-83.261276,320.155916 L-74.645004,320.155916 C-72.644798,320.155916 -70.029144,320.46364 -68.336662,322.00226 C-66.490318,323.848604 -66.028732,327.233568 -66.028732,329.69536 L-66.028732,341.23501 C-66.028732,343.850664 -66.490318,347.235628 -68.336662,348.92811 C-70.029144,350.46673 -72.644798,350.774454 -74.645004,350.774454 Z M-15.446548,412.165392 C-8.215034,412.165392 -2.060554,410.011324 2.401444,405.85705 C5.94027,402.472086 10.094544,396.471468 10.094544,385.701128 L10.094544,385.701128 L10.094544,328.464464 C10.094544,317.694124 5.94027,311.693506 2.401444,308.308542 C-2.060554,304.154268 -8.215034,302.0002 -15.446548,302.0002 C-22.678062,302.0002 -28.832542,304.154268 -33.29454,308.308542 C-36.833366,311.693506 -40.98764,317.694124 -40.98764,328.464464 L-40.98764,328.464464 L-40.98764,385.701128 C-40.98764,396.471468 -36.833366,402.472086 -33.29454,405.85705 C-28.832542,410.011324 -22.678062,412.165392 -15.446548,412.165392 Z M-15.446548,395.240572 C-17.446754,395.240572 -20.062408,394.932848 -21.75489,393.394228 C-23.601234,391.701746 -24.06282,388.16292 -24.06282,385.701128 L-24.06282,385.701128 L-24.06282,328.464464 C-24.06282,326.002672 -23.601234,322.463846 -21.75489,320.771364 C-20.062408,319.232744 -17.446754,318.92502 -15.446548,318.92502 C-13.446342,318.92502 -10.676826,319.232744 -9.138206,320.771364 C-7.138,322.463846 -6.830276,326.002672 -6.830276,328.464464 L-6.830276,328.464464 L-6.830276,385.701128 C-6.830276,388.16292 -7.138,391.701746 -9.138206,393.394228 C-10.676826,394.932848 -13.446342,395.240572 -15.446548,395.240572 Z M73.40886,410.934496 L73.40886,320.155916 L90.641404,320.155916 L90.641404,303.231096 L39.251496,303.231096 L39.251496,320.155916 L56.48404,320.155916 L56.48404,410.934496 L73.40886,410.934496 Z M121.836976,412.165392 C129.06849,412.165392 135.22297,410.011324 139.684968,405.85705 C143.223794,402.472086 147.378068,396.471468 147.378068,385.701128 L147.378068,385.701128 L147.378068,328.464464 C147.378068,317.694124 143.223794,311.693506 139.684968,308.308542 C135.22297,304.154268 129.06849,302.0002 121.836976,302.0002 C114.605462,302.0002 108.450982,304.154268 103.988984,308.308542 C100.450158,311.693506 96.295884,317.694124 96.295884,328.464464 L96.295884,328.464464 L96.295884,385.701128 C96.295884,396.471468 100.450158,402.472086 103.988984,405.85705 C108.450982,410.011324 114.605462,412.165392 121.836976,412.165392 Z M121.836976,395.240572 C119.83677,395.240572 117.221116,394.932848 115.528634,393.394228 C113.68229,391.701746 113.220704,388.16292 113.220704,385.701128 L113.220704,385.701128 L113.220704,328.464464 C113.220704,326.002672 113.68229,322.463846 115.528634,320.771364 C117.221116,319.232744 119.83677,318.92502 121.836976,318.92502 C123.837182,318.92502 126.606698,319.232744 128.145318,320.771364 C130.145524,322.463846 130.453248,326.002672 130.453248,328.464464 L130.453248,328.464464 L130.453248,385.701128 C130.453248,388.16292 130.145524,391.701746 128.145318,393.394228 C126.606698,394.932848 123.837182,395.240572 121.836976,395.240572 Z M182.574052,412.165392 C189.651704,412.165392 195.806184,410.011324 200.422044,405.85705 C203.807008,402.472086 208.115144,396.471468 208.115144,385.701128 L208.115144,385.701128 L208.115144,303.231096 L191.190324,303.231096 L191.190324,385.701128 C191.190324,388.16292 190.728738,391.701746 188.882394,393.394228 C187.189912,394.932848 184.420396,395.240572 182.574052,395.240572 C180.573846,395.240572 177.80433,394.932848 176.111848,393.394228 C174.265504,391.701746 173.95778,388.16292 173.95778,385.701128 L173.95778,385.701128 L173.95778,303.231096 L157.03296,303.231096 L157.03296,385.701128 C157.03296,396.471468 161.187234,402.472086 164.72606,405.85705 C169.188058,410.011324 175.342538,412.165392 182.574052,412.165392 Z M236.079614,410.934496 L236.079614,367.699274 L243.772714,367.699274 L252.542848,410.934496 L269.775392,410.934496 L260.082086,363.391138 C261.005258,362.77569 261.774568,362.160242 262.543878,361.390932 C266.082704,358.15983 270.236978,352.00535 270.236978,341.23501 L270.236978,329.69536 C270.236978,319.078882 266.082704,312.924402 262.543878,309.6933 C258.08188,305.539026 251.9274,303.231096 244.695886,303.231096 L219.154794,303.231096 L219.154794,410.934496 L236.079614,410.934496 Z M244.695886,350.774454 L236.079614,350.774454 L236.079614,320.155916 L244.695886,320.155916 C246.696092,320.155916 249.311746,320.46364 251.004228,322.00226 C252.850572,323.848604 253.312158,327.233568 253.312158,329.69536 L253.312158,341.23501 C253.312158,343.850664 252.850572,347.235628 251.004228,348.92811 C249.311746,350.46673 246.696092,350.774454 244.695886,350.774454 Z" id="PROToUR" fill="#FEFEFE" fill-rule="nonzero" transform="translate(55.118489, 357.082796) rotate(-90.000000) translate(-55.118489, -357.082796) "></path>
            <path d="M299.8707,10.3584 L299.8707,32.6154 L252.4787,32.6154 L252.4787,48.0244 L275.4977,48.0244 C291.4937,48.0244 304.4627,60.9874 304.470702,76.9834 L304.470702,76.9834 L304.466998,77.4626325 C304.216937,93.246702 291.34364,105.9684 275.4977,105.9684 L275.4977,105.9684 L231.6427,105.9684 L231.6427,83.7114 L279.0347,83.7114 L279.0347,67.7774 L255.7517,67.7774 C239.8967,67.7774 227.0427,54.9234 227.0427,39.0674 C227.0427,23.2124 239.8967,10.3584 255.7517,10.3584 L255.7517,10.3584 L299.8707,10.3584 Z M339.0037,10.3588 L339.0037,83.7108 L384.0147,83.7108 L384.0147,105.9678 L335.8237,105.9678 C323.5327,105.9678 313.5677,96.0028 313.5677,83.7128 L313.5677,83.7128 L313.5677,10.3588 L339.0037,10.3588 Z M219.1404,10.3589 L219.1404,32.6149 L168.0634,32.6149 L168.0634,48.0239 L215.7894,48.0239 L215.7894,67.7769 L168.0634,67.7769 L168.0634,83.7119 L219.1404,83.7119 L219.1404,105.9679 L164.8834,105.9679 C152.5914,105.9679 142.6274,96.0039 142.6274,83.7119 L142.6274,83.7119 L142.6274,32.5989 C142.6274,20.3159 152.5844,10.3589 164.8664,10.3589 L164.8664,10.3589 L219.1404,10.3589 Z" id="Combined-Shape" fill="#FEFEFE"></path>
            <circle id="Oval" fill="#000000" cx="59" cy="58.0002" r="57"></circle>
            <path d="M58.9756,0 C26.7366,0 0.6006,26.136 0.6006,58.375 C0.6006,90.615 26.7366,116.75 58.9756,116.75 C91.2166,116.75 117.3506,90.615 117.3506,58.375 C117.3506,26.136 91.2166,0 58.9756,0 M16.7706,81.054 L61.1866,10.523 C71.8556,11.009 81.6146,14.98 89.3496,21.329 L21.9296,88.75 C19.9726,86.365 18.2436,83.789 16.7706,81.054 M28.7926,95.572 L96.1716,28.193 C102.4846,35.963 106.4076,45.748 106.8336,56.435 L36.5386,100.705 C33.7856,99.243 31.1936,97.521 28.7926,95.572 M58.9756,106.283 C55.1626,106.283 51.4596,105.824 47.9046,104.982 L105.7956,68.526 C101.1396,90.108 81.9506,106.283 58.9756,106.283" id="Fill-2" fill="#FEFEFE"></path>
        </g>
    </g>
</svg>