<svg xmlns="http://www.w3.org/2000/svg" id="AW" width="291" height="90" viewBox="0 0 291 90"><defs><style>.cls-1{fill:#fff;}</style></defs><title>ESL-POS</title><path class="cls-1" d="M108.77,64.123a16.454,16.454,0,0,0,16.454,16.454h40.114V64.122H127.575V52.342H162.86v-14.6H127.575V26.346h37.763V9.891H125.213A16.443,16.443,0,0,0,108.77,26.334Z"></path><path class="cls-1" d="M228.424,59.148h0A21.42,21.42,0,0,0,207,37.738H189.985V26.346h35.038V9.891H192.406a21.226,21.226,0,0,0-21.225,21.226h0a21.225,21.225,0,0,0,21.225,21.225h17.213v11.78H174.581V80.577H207A21.421,21.421,0,0,0,228.424,59.148Z"></path><path class="cls-1" d="M251.6,80.577h35.628V64.122H253.954V9.891h-18.8V64.123A16.454,16.454,0,0,0,251.6,80.577Z"></path><circle class="cls-1" cx="46.925" cy="45.391" r="43.158" transform="translate(-6.665 8.103) rotate(-9.217)"></circle><path d="M48.56,10.013,15.722,62.158a35.516,35.516,0,0,0,3.814,5.689L69.381,18A35.26,35.26,0,0,0,48.56,10.013Z"></path><path d="M74.425,23.076,24.61,72.891a35.476,35.476,0,0,0,5.727,3.8L82.308,43.957A35.247,35.247,0,0,0,74.425,23.076Z"></path><path d="M81.54,52.9,38.74,79.849A35.461,35.461,0,0,0,81.54,52.9Z"></path></svg>