<?xml version="1.0" encoding="UTF-8"?>
<svg width="156px" height="73px" viewBox="0 0 156 73" version="1.1" xmlns="http://www.w3.org/2000/svg" xmlns:xlink="http://www.w3.org/1999/xlink">
    <title>igs-light</title>
    <g id="igs-light" stroke="none" stroke-width="1" fill="none" fill-rule="evenodd">
        <g id="Group" transform="translate(1.000000, 1.000000)">
            <path d="M48.4916992,31 L48.4916992,18.1503906 L51.2163086,18.1503906 L51.2163086,31 L48.4916992,31 Z M65.8500977,31 L62.387207,31 L56.7973633,21.2792969 L56.7182617,21.2792969 C56.8295904,22.9961023 56.8852539,24.2206995 56.8852539,24.953125 L56.8852539,31 L54.4506836,31 L54.4506836,18.1503906 L57.887207,18.1503906 L63.4682617,27.7744141 L63.5297852,27.7744141 C63.4418941,26.1044838 63.3979492,24.9238316 63.3979492,24.2324219 L63.3979492,18.1503906 L65.8500977,18.1503906 L65.8500977,31 Z M74.0415039,31 L71.3168945,31 L71.3168945,20.4179688 L67.8276367,20.4179688 L67.8276367,18.1503906 L77.5307617,18.1503906 L77.5307617,20.4179688 L74.0415039,20.4179688 L74.0415039,31 Z M86.9086914,31 L79.5083008,31 L79.5083008,18.1503906 L86.9086914,18.1503906 L86.9086914,20.3828125 L82.2329102,20.3828125 L82.2329102,23.2041016 L86.5834961,23.2041016 L86.5834961,25.4365234 L82.2329102,25.4365234 L82.2329102,28.75 L86.9086914,28.75 L86.9086914,31 Z M89.5893555,31 L89.5893555,18.1503906 L92.3139648,18.1503906 L92.3139648,28.75 L97.5258789,28.75 L97.5258789,31 L89.5893555,31 Z M104.92041,18.6972656 C104.92041,19.3613314 104.641116,19.816405 104.08252,20.0625 L105.471191,22.40625 L103.98291,22.40625 L102.939941,20.4257812 L102.664551,20.4257812 L102.664551,22.40625 L101.322754,22.40625 L101.322754,17.0390625 L102.869629,17.0390625 C103.576664,17.0390625 104.095213,17.1757799 104.425293,17.4492188 C104.755373,17.7226576 104.92041,18.1386691 104.92041,18.6972656 Z M102.664551,19.4414062 L102.846191,19.4414062 C103.104005,19.4414062 103.288574,19.3857427 103.399902,19.2744141 C103.511231,19.1630854 103.566895,18.9785169 103.566895,18.7207031 C103.566895,18.4667956 103.512208,18.2871099 103.402832,18.1816406 C103.293456,18.0761713 103.104005,18.0234375 102.834473,18.0234375 L102.664551,18.0234375 L102.664551,19.4414062 Z M98.7270508,19.7167969 C98.7270508,18.935543 98.9223613,18.2031284 99.3129883,17.5195312 C99.7036152,16.8359341 100.240719,16.296877 100.924316,15.9023438 C101.607914,15.5078105 102.344234,15.3105469 103.133301,15.3105469 C103.914555,15.3105469 104.646969,15.5058574 105.330566,15.8964844 C106.014164,16.2871113 106.553221,16.8242153 106.947754,17.5078125 C107.342287,18.1914097 107.539551,18.9277304 107.539551,19.7167969 C107.539551,20.486332 107.3501,21.208981 106.971191,21.8847656 C106.592283,22.5605503 106.061039,23.1015605 105.377441,23.5078125 C104.693844,23.9140645 103.945805,24.1171875 103.133301,24.1171875 C102.324703,24.1171875 101.578617,23.9150411 100.89502,23.5107422 C100.211422,23.1064433 99.6792011,22.5664096 99.2983398,21.890625 C98.9174786,21.2148404 98.7270508,20.4902382 98.7270508,19.7167969 Z M99.559082,19.7167969 C99.559082,20.3574251 99.7192367,20.9540988 100.039551,21.5068359 C100.359865,22.0595731 100.797361,22.4951156 101.352051,22.8134766 C101.906741,23.1318375 102.500485,23.2910156 103.133301,23.2910156 C103.773929,23.2910156 104.370603,23.130861 104.92334,22.8105469 C105.476077,22.4902328 105.91162,22.0527371 106.22998,21.4980469 C106.548341,20.9433566 106.70752,20.3496125 106.70752,19.7167969 C106.70752,19.0761687 106.547365,18.479495 106.227051,17.9267578 C105.906737,17.3740207 105.469241,16.9384782 104.914551,16.6201172 C104.359861,16.3017562 103.766116,16.1425781 103.133301,16.1425781 C102.492673,16.1425781 101.895999,16.3027328 101.343262,16.6230469 C100.790525,16.943361 100.354982,17.3808566 100.036621,17.9355469 C99.7182601,18.4902371 99.559082,19.0839812 99.559082,19.7167969 Z M24.2734375,39.7841797 L29.3710938,39.7841797 L29.3710938,46.4462891 C28.5449177,46.7158217 27.7670935,46.9047846 27.0375977,47.0131836 C26.3081018,47.1215826 25.5625038,47.1757812 24.8007812,47.1757812 C22.8613184,47.1757812 21.3803762,46.6059627 20.3579102,45.4663086 C19.3354441,44.3266545 18.8242188,42.6904404 18.8242188,40.5576172 C18.8242188,38.4833881 19.4174745,36.8662167 20.6040039,35.7060547 C21.7905333,34.5458926 23.4355364,33.9658203 25.5390625,33.9658203 C26.8574285,33.9658203 28.1289001,34.2294896 29.3535156,34.7568359 L28.4482422,36.9365234 C27.5107375,36.4677711 26.5351613,36.2333984 25.5214844,36.2333984 C24.3437441,36.2333984 23.4003942,36.6289023 22.6914062,37.4199219 C21.9824183,38.2109415 21.6279297,39.2744074 21.6279297,40.6103516 C21.6279297,42.0048898 21.9135714,43.0698205 22.4848633,43.8051758 C23.0561552,44.540531 23.8867133,44.9082031 24.9765625,44.9082031 C25.5449247,44.9082031 26.1220674,44.84961 26.7080078,44.7324219 L26.7080078,42.0517578 L24.2734375,42.0517578 L24.2734375,39.7841797 Z M35.1542969,39.8544922 L36.0332031,39.8544922 C36.8945356,39.8544922 37.5302714,39.7109389 37.9404297,39.4238281 C38.350588,39.1367173 38.5556641,38.68555 38.5556641,38.0703125 C38.5556641,37.4609345 38.3461935,37.027345 37.9272461,36.7695312 C37.5082987,36.5117175 36.8593794,36.3828125 35.9804688,36.3828125 L35.1542969,36.3828125 L35.1542969,39.8544922 Z M35.1542969,42.0693359 L35.1542969,47 L32.4296875,47 L32.4296875,34.1503906 L36.1738281,34.1503906 C37.9199306,34.1503906 39.2119099,34.4682585 40.0498047,35.1040039 C40.8876995,35.7397493 41.3066406,36.7050717 41.3066406,38 C41.3066406,38.7558632 41.0986349,39.4282197 40.6826172,40.0170898 C40.2665995,40.60596 39.6777382,41.0673811 38.9160156,41.4013672 C40.849619,44.2900535 42.1093721,46.1562458 42.6953125,47 L39.671875,47 L36.6044922,42.0693359 L35.1542969,42.0693359 Z M52.1787109,47 L51.2470703,43.9414062 L46.5625,43.9414062 L45.6308594,47 L42.6953125,47 L47.2304688,34.0976562 L50.5615234,34.0976562 L55.1142578,47 L52.1787109,47 Z M50.5966797,41.65625 C49.7353473,38.8847518 49.2504888,37.3173846 49.1420898,36.9541016 C49.0336909,36.5908185 48.9560549,36.303712 48.9091797,36.0927734 C48.7158193,36.8427772 48.1621139,38.6972508 47.2480469,41.65625 L50.5966797,41.65625 Z M68.1308594,47 L64.6679688,47 L59.078125,37.2792969 L58.9990234,37.2792969 C59.1103521,38.9961023 59.1660156,40.2206995 59.1660156,40.953125 L59.1660156,47 L56.7314453,47 L56.7314453,34.1503906 L60.1679688,34.1503906 L65.7490234,43.7744141 L65.8105469,43.7744141 C65.7226558,42.1044838 65.6787109,40.9238316 65.6787109,40.2324219 L65.6787109,34.1503906 L68.1308594,34.1503906 L68.1308594,47 Z M82.0263672,40.4521484 C82.0263672,42.5673934 81.4243224,44.1874944 80.2202148,45.3125 C79.0161073,46.4375056 77.2773551,47 75.0039062,47 L71.3652344,47 L71.3652344,34.1503906 L75.3994141,34.1503906 C77.4970808,34.1503906 79.1259708,34.704096 80.2861328,35.8115234 C81.4462949,36.9189508 82.0263672,38.4658104 82.0263672,40.4521484 Z M79.1962891,40.5224609 C79.1962891,37.7626815 77.9775513,36.3828125 75.5400391,36.3828125 L74.0898438,36.3828125 L74.0898438,44.75 L75.2587891,44.75 C77.8838022,44.75 79.1962891,43.3408344 79.1962891,40.5224609 Z M96.9501953,43.4316406 C96.9501953,44.5918027 96.532719,45.505856 95.6977539,46.1738281 C94.8627888,46.8418002 93.7011793,47.1757812 92.2128906,47.1757812 C90.84179,47.1757812 89.6289115,46.9179713 88.5742188,46.4023438 L88.5742188,43.8710938 C89.4414106,44.2578144 90.17529,44.5302726 90.7758789,44.6884766 C91.3764678,44.8466805 91.9257788,44.9257812 92.4238281,44.9257812 C93.0214874,44.9257812 93.4799789,44.8115246 93.7993164,44.5830078 C94.1186539,44.354491 94.2783203,44.0146507 94.2783203,43.5634766 C94.2783203,43.3115222 94.2080085,43.0874033 94.0673828,42.8911133 C93.9267571,42.6948232 93.7202162,42.5058603 93.4477539,42.3242188 C93.1752916,42.1425772 92.6201214,41.8525411 91.7822266,41.4541016 C90.9970664,41.0849591 90.4082051,40.7304704 90.015625,40.390625 C89.6230449,40.0507796 89.3095715,39.6552757 89.0751953,39.2041016 C88.8408191,38.7529274 88.7236328,38.225589 88.7236328,37.6220703 C88.7236328,36.4853459 89.1088829,35.5918001 89.8793945,34.9414062 C90.6499062,34.2910124 91.714837,33.9658203 93.0742188,33.9658203 C93.7421908,33.9658203 94.3793915,34.0449211 94.9858398,34.203125 C95.5922882,34.3613289 96.2265592,34.5839829 96.8886719,34.8710938 L96.0097656,36.9892578 C95.3242153,36.7080064 94.7573265,36.5117193 94.309082,36.4003906 C93.8608376,36.2890619 93.419924,36.2333984 92.9863281,36.2333984 C92.4707005,36.2333984 92.0751967,36.3535144 91.7998047,36.59375 C91.5244127,36.8339856 91.3867188,37.147459 91.3867188,37.5341797 C91.3867188,37.7744153 91.4423823,37.9838858 91.5537109,38.1625977 C91.6650396,38.3413095 91.8422839,38.5141593 92.0854492,38.6811523 C92.3286145,38.8481454 92.9042923,39.1484353 93.8125,39.5820312 C95.0136779,40.1562529 95.8369118,40.7319307 96.2822266,41.309082 C96.7275413,41.8862334 96.9501953,42.5937458 96.9501953,43.4316406 Z M99.2792969,47 L99.2792969,34.1503906 L102.003906,34.1503906 L102.003906,44.75 L107.21582,44.75 L107.21582,47 L99.2792969,47 Z M117.314453,47 L116.382812,43.9414062 L111.698242,43.9414062 L110.766602,47 L107.831055,47 L112.366211,34.0976562 L115.697266,34.0976562 L120.25,47 L117.314453,47 Z M115.732422,41.65625 C114.871089,38.8847518 114.386231,37.3173846 114.277832,36.9541016 C114.169433,36.5908185 114.091797,36.303712 114.044922,36.0927734 C113.851562,36.8427772 113.297856,38.6972508 112.383789,41.65625 L115.732422,41.65625 Z M127.307617,47 L124.213867,36.9189453 L124.134766,36.9189453 C124.246094,38.9697368 124.301758,40.3378872 124.301758,41.0234375 L124.301758,47 L121.867188,47 L121.867188,34.1503906 L125.576172,34.1503906 L128.617188,43.9765625 L128.669922,43.9765625 L131.895508,34.1503906 L135.604492,34.1503906 L135.604492,47 L133.064453,47 L133.064453,40.9179688 C133.064453,40.6308579 133.068848,40.2998066 133.077637,39.9248047 C133.086426,39.5498028 133.125976,38.553719 133.196289,36.9365234 L133.117188,36.9365234 L129.803711,47 L127.307617,47 Z" id="INTEL®GRANDSLAM" fill="#FFFFFF" fill-rule="nonzero"></path>
            <path d="M58,63.6502835 C58,63.7611847 57.9322918,63.8821676 57.7968749,64.0132327 L54.9609374,66.6899811 L55.6328123,70.4706994 C55.6380208,70.5059861 55.6406248,70.5563957 55.6406248,70.621928 C55.6406248,70.7277881 55.6132814,70.8172652 55.5585937,70.890359 C55.5039064,70.9634527 55.4244793,71 55.3203123,71 C55.2213542,71 55.1171877,70.9697539 55.0078122,70.9092627 L51.5,69.1247636 L47.9921873,70.9092627 C47.8776043,70.9697539 47.7734373,71 47.6796877,71 C47.5703123,71 47.4882811,70.9634527 47.4335939,70.890359 C47.3789061,70.8172652 47.3515623,70.7277881 47.3515623,70.621928 C47.3515623,70.5916824 47.3567707,70.5412729 47.3671877,70.4706994 L48.0390626,66.6899811 L45.1953126,64.0132327 C45.0651042,63.8771265 45,63.7561436 45,63.6502835 C45,63.4637682 45.1458333,63.3478259 45.4375,63.3024575 L49.359375,62.7504728 L51.1171875,59.3100189 C51.2161456,59.1033398 51.34375,59 51.5,59 C51.65625,59 51.783854,59.1033398 51.8828125,59.3100189 L53.640625,62.7504728 L57.5625,63.3024575 C57.8541667,63.3478259 58,63.4637682 58,63.6502835 Z" id="star" fill="#FFFFFF" fill-rule="nonzero"></path>
            <path d="M75,63.6502835 C75,63.7611847 74.9322918,63.8821676 74.7968749,64.0132327 L71.9609374,66.6899811 L72.6328123,70.4706994 C72.6380208,70.5059861 72.6406248,70.5563957 72.6406248,70.621928 C72.6406248,70.7277881 72.6132814,70.8172652 72.5585937,70.890359 C72.5039064,70.9634527 72.4244793,71 72.3203123,71 C72.2213542,71 72.1171877,70.9697539 72.0078122,70.9092627 L68.5,69.1247636 L64.9921873,70.9092627 C64.8776043,70.9697539 64.7734373,71 64.6796877,71 C64.5703123,71 64.4882811,70.9634527 64.4335939,70.890359 C64.3789061,70.8172652 64.3515623,70.7277881 64.3515623,70.621928 C64.3515623,70.5916824 64.3567707,70.5412729 64.3671877,70.4706994 L65.0390626,66.6899811 L62.1953126,64.0132327 C62.0651042,63.8771265 62,63.7561436 62,63.6502835 C62,63.4637682 62.1458333,63.3478259 62.4375,63.3024575 L66.359375,62.7504728 L68.1171875,59.3100189 C68.2161456,59.1033398 68.34375,59 68.5,59 C68.65625,59 68.783854,59.1033398 68.8828125,59.3100189 L70.640625,62.7504728 L74.5625,63.3024575 C74.8541667,63.3478259 75,63.4637682 75,63.6502835 Z" id="star" fill="#FFFFFF" fill-rule="nonzero"></path>
            <path d="M91,63.6502835 C91,63.7611847 90.9322918,63.8821676 90.7968749,64.0132327 L87.9609374,66.6899811 L88.6328123,70.4706994 C88.6380208,70.5059861 88.6406248,70.5563957 88.6406248,70.621928 C88.6406248,70.7277881 88.6132814,70.8172652 88.5585937,70.890359 C88.5039064,70.9634527 88.4244793,71 88.3203123,71 C88.2213542,71 88.1171877,70.9697539 88.0078122,70.9092627 L84.5,69.1247636 L80.9921873,70.9092627 C80.8776043,70.9697539 80.7734373,71 80.6796877,71 C80.5703123,71 80.4882811,70.9634527 80.4335939,70.890359 C80.3789061,70.8172652 80.3515623,70.7277881 80.3515623,70.621928 C80.3515623,70.5916824 80.3567707,70.5412729 80.3671877,70.4706994 L81.0390626,66.6899811 L78.1953126,64.0132327 C78.0651042,63.8771265 78,63.7561436 78,63.6502835 C78,63.4637682 78.1458333,63.3478259 78.4375,63.3024575 L82.359375,62.7504728 L84.1171875,59.3100189 C84.2161456,59.1033398 84.34375,59 84.5,59 C84.65625,59 84.783854,59.1033398 84.8828125,59.3100189 L86.640625,62.7504728 L90.5625,63.3024575 C90.8541667,63.3478259 91,63.4637682 91,63.6502835 Z" id="star" fill="#FFFFFF" fill-rule="nonzero"></path>
            <path d="M108,63.6502835 C108,63.7611847 107.932292,63.8821676 107.796875,64.0132327 L104.960937,66.6899811 L105.632812,70.4706994 C105.638021,70.5059861 105.640625,70.5563957 105.640625,70.621928 C105.640625,70.7277881 105.613281,70.8172652 105.558594,70.890359 C105.503906,70.9634527 105.424479,71 105.320312,71 C105.221354,71 105.117188,70.9697539 105.007812,70.9092627 L101.5,69.1247636 L97.9921873,70.9092627 C97.8776043,70.9697539 97.7734373,71 97.6796877,71 C97.5703123,71 97.4882811,70.9634527 97.4335939,70.890359 C97.3789061,70.8172652 97.3515623,70.7277881 97.3515623,70.621928 C97.3515623,70.5916824 97.3567707,70.5412729 97.3671877,70.4706994 L98.0390626,66.6899811 L95.1953126,64.0132327 C95.0651042,63.8771265 95,63.7561436 95,63.6502835 C95,63.4637682 95.1458333,63.3478259 95.4375,63.3024575 L99.359375,62.7504728 L101.117188,59.3100189 C101.216146,59.1033398 101.34375,59 101.5,59 C101.65625,59 101.783854,59.1033398 101.882812,59.3100189 L103.640625,62.7504728 L107.5625,63.3024575 C107.854167,63.3478259 108,63.4637682 108,63.6502835 Z" id="star" fill="#FFFFFF" fill-rule="nonzero"></path>
            <path d="M31.8378906,66 L8,66 C3.581722,66 0,62.7617308 0,58.7671233 L0,7.23287671 C0,3.23826921 3.581722,0 8,0 L146,0 C150.418278,0 154,3.23826921 154,7.23287671 L154,58.7671233 C154,62.7617308 150.418278,66 146,66 L120.058594,66" id="Path" stroke="#FFFFFF" stroke-width="2"></path>
        </g>
    </g>
</svg>